<?xml version="1.0" encoding="UTF-8"?><svg xmlns="http://www.w3.org/2000/svg" width="391" height="391" viewBox="0 0 391 391"><defs><style>.cls-1{fill:#f4f1f6;}.cls-2{fill:#c6007e;}</style></defs><g id="HG"><circle class="cls-1" cx="195.5" cy="195.5" r="195.5"/></g><g id="Ebene_3"><path class="cls-2" d="M273.39,325.78H101.51c-2.99,0-5.42-2.43-5.42-5.42v-116.89h-13.13c-2.11,0-4.03-1.23-4.92-3.15-.89-1.92-.58-4.18.79-5.79l39.11-46.06c1.03-1.21,2.54-1.91,4.13-1.91h63.63v-75.71c0-2.99,2.43-5.42,5.42-5.42h108.16c2.99,0,5.42,2.43,5.42,5.42v106.8c0,2.19-1.32,4.17-3.35,5.01-2.02.84-4.36.38-5.91-1.17l-24.08-24.08H124.58l-29.9,35.22h178.71c2.99,0,5.42,2.43,5.42,5.42v122.31c0,2.99-2.43,5.42-5.42,5.42ZM106.93,314.94h161.04v-111.47H106.93v111.47ZM196.54,146.57h77.07c1.44,0,2.82.57,3.84,1.59l16.41,16.41v-88.29h-97.32v70.29Z"/><path class="cls-2" d="M196.95,322.28c-2.99,0-5.42-2.43-5.42-5.42v-71.54c0-4.12-10.92-10.34-27.37-10.34s-27.37,6.22-27.37,10.34v71.54c0,2.99-2.43,5.42-5.42,5.42s-5.42-2.43-5.42-5.42v-71.54c0-12.08,16.43-21.18,38.21-21.18s38.21,9.11,38.21,21.18v71.54c0,2.99-2.43,5.42-5.42,5.42Z"/></g></svg>