<?xml version="1.0" encoding="UTF-8"?><svg xmlns="http://www.w3.org/2000/svg" width="391" height="391" viewBox="0 0 391 391"><defs><style>.cls-1{fill:#f4f1f6;}.cls-2{fill:#c6007e;}</style></defs><g id="HG"><circle class="cls-1" cx="195.5" cy="195.5" r="195.5"/></g><g id="Ebene_1"><path class="cls-2" d="M187.7,185.73c0-5.15,4.04-8.98,9.69-8.98s9.69,3.83,9.69,8.98-4.04,9.18-9.69,9.18-9.69-4.14-9.69-9.18ZM188,123.47h18.77l-3.13,46.12h-12.51l-3.13-46.12Z"/><path class="cls-2" d="M255.07,324.11c-1.6,0-3.18-.63-4.36-1.81l-70.57-70.47h-78.87c-3.41,0-6.18-2.77-6.18-6.18V73.06c0-3.41,2.76-6.18,6.18-6.18h188.49c3.41,0,6.18,2.76,6.18,6.18v30.26c0,3.41-2.77,6.18-6.18,6.18s-6.18-2.76-6.18-6.18v-24.08H107.43v160.24h75.25c1.64,0,3.21.65,4.36,1.81l61.84,61.75v-57.38c0-3.41,2.77-6.18,6.18-6.18h28.5v-53.91c0-3.41,2.77-6.18,6.18-6.18s6.18,2.76,6.18,6.18v60.09c0,3.41-2.77,6.18-6.18,6.18h-28.5v66.1c0,2.5-1.5,4.75-3.81,5.7-.76.32-1.57.47-2.37.47Z"/></g></svg>