<?xml version="1.0" encoding="UTF-8"?><svg xmlns="http://www.w3.org/2000/svg" width="391" height="391" viewBox="0 0 391 391"><defs><style>.cls-1{fill:#f4f1f6;}.cls-2{fill:#c6007e;}</style></defs><g id="HG"><circle class="cls-1" cx="195.5" cy="195.5" r="195.5"/></g><g id="Ebene_9"><path class="cls-2" d="M239.32,290.31c-.25,0-.51-.02-.76-.06-1.78-.31-3.21-1.64-3.63-3.4l-10.11-42.06c-.58-2.43.91-4.86,3.34-5.45,2.42-.58,4.86.91,5.45,3.34l7.66,31.84,16.86-25.96-7.69-42.01c-.45-2.45,1.17-4.81,3.63-5.26,2.45-.45,4.81,1.17,5.26,3.63l8.01,43.77c.21,1.14-.02,2.31-.65,3.27l-23.56,36.28c-.84,1.3-2.27,2.06-3.79,2.06Z"/><path class="cls-2" d="M220.58,252.64c-2.57,0-5.13-.11-7.64-.33-2.49-.22-4.32-2.41-4.11-4.89.22-2.48,2.44-4.36,4.89-4.11,3.1.27,6.26.35,9.47.25l43.74-67.35c1.36-2.1,4.16-2.69,6.25-1.33,2.09,1.36,2.69,4.16,1.33,6.25l-45,69.3c-.78,1.2-2.09,1.96-3.52,2.05-1.81.11-3.61.16-5.41.16Z"/><path class="cls-2" d="M152.47,213.02c-1.65,0-3.25-.88-4.11-2.42-2.11-3.83-3.97-7.84-5.51-11.94-.53-1.39-.36-2.96.46-4.21l49.74-76.6c9.87-15.2,28.24-43.48,91.48-51.95,2.3-.31,4.48,1.1,5.12,3.33,10.01,34.08,7,65.17,1.38,81.44-.61,1.76-2.2,3-4.06,3.15-7.46.6-14.65-.23-21.4-2.46-2.46-.81-3.8-3.46-2.99-5.92.81-2.46,3.45-3.79,5.92-2.99,4.62,1.52,9.48,2.23,14.6,2.17,4.57-15.88,5.7-42.03-1.37-68.83-55.71,8.52-71.99,33.58-80.82,47.18l-48.43,74.58c1.19,2.92,2.57,5.78,4.09,8.52,1.25,2.27.43,5.12-1.84,6.38-.72.4-1.5.59-2.27.59Z"/><path class="cls-2" d="M107.75,204.87c-1.49,0-2.91-.74-3.76-2.01-1-1.5-1.01-3.46-.03-4.97l23.56-36.28c.63-.97,1.6-1.66,2.72-1.93l43.26-10.48c2.43-.6,4.87.9,5.46,3.33.59,2.42-.9,4.87-3.33,5.45l-41.51,10.06-16.86,25.96,32.2-5.96c2.43-.46,4.8,1.16,5.26,3.62.45,2.45-1.17,4.81-3.62,5.26l-42.54,7.87c-.27.05-.55.08-.82.08Z"/><path class="cls-2" d="M177.53,345.15c-2.27,0-4.26-1.65-4.62-3.96l-3.77-23.73c-.41-2.56,1.34-4.96,3.9-5.37,2.59-.41,4.96,1.34,5.37,3.9l3.77,23.73c.41,2.56-1.34,4.96-3.9,5.37-.25.04-.5.06-.74.06ZM119.31,334.02c-.88,0-1.76-.25-2.55-.76-2.17-1.41-2.79-4.32-1.38-6.49l13.09-20.15c1.41-2.17,4.31-2.79,6.49-1.38,2.17,1.41,2.79,4.32,1.38,6.49l-13.09,20.15c-.9,1.38-2.4,2.14-3.94,2.14ZM85.47,285.36c-2.07,0-3.97-1.38-4.53-3.48-.67-2.5.81-5.07,3.32-5.74l23.21-6.21c2.49-.67,5.07.82,5.74,3.32.67,2.5-.81,5.07-3.32,5.74l-23.21,6.21c-.4.11-.81.16-1.21.16Z"/><path class="cls-2" d="M225.08,182.1c-.55,0-1.11-.15-1.6-.48-1.37-.89-1.76-2.72-.87-4.09l2.67-4.11c.36-.55-.46-3-3.61-5.05-1.52-.99-3.17-1.58-4.52-1.63-.83-.03-1.42.18-1.55.39l-2.67,4.11c-.89,1.37-2.72,1.76-4.09.87-1.37-.89-1.75-2.72-.87-4.09l2.67-4.11c1.34-2.06,3.82-3.22,6.73-3.08,2.42.09,5.09,1.01,7.52,2.58,5.58,3.63,7.88,9.31,5.35,13.21l-2.67,4.11c-.57.87-1.51,1.35-2.48,1.35Z"/><path class="cls-2" d="M166.48,203.67l5.25,4.01c-.43.55-10.51,13.66-22.4,21.86-11.36,7.84-15.27,12.04-18.51,17.04-10.17,15.66-5.71,36.66,9.95,46.83,15.65,10.16,36.66,5.7,46.83-9.95,3.24-5,5.49-10.29,8.03-23.85,2.66-14.19,10.53-28.73,10.87-29.35l5.8,3.16c-.08.15-7.71,14.26-10.17,27.41-2.73,14.57-5.37,20.65-8.99,26.23-12.15,18.71-37.25,24.04-55.96,11.9-18.71-12.15-24.04-37.25-11.89-55.96,3.62-5.58,8.1-10.45,20.3-18.88,11.01-7.6,20.8-20.31,20.9-20.44"/><path class="cls-2" d="M136.75,299.6c-19.06-12.38-24.5-37.96-12.12-57.03,3.68-5.66,8.21-10.6,20.51-19.09,10.9-7.53,20.64-20.15,20.73-20.28l.47-.61,6.48,4.95-.48.61c-1.1,1.43-11.02,14.05-22.57,22.02-11.24,7.76-15.1,11.9-18.3,16.83-9.94,15.3-5.57,35.83,9.72,45.76,15.3,9.94,35.82,5.57,45.76-9.73,3.19-4.91,5.4-10.13,7.92-23.57,2.62-13.96,10.1-28.02,10.94-29.58l.37-.68,7.14,3.89-.35.67c-.8,1.5-7.76,14.75-10.1,27.19-2.75,14.7-5.42,20.85-9.09,26.51-12.38,19.07-37.97,24.5-57.03,12.13"/><path class="cls-2" d="M171.91,260.56c-2.91,0-5.75-.83-8.23-2.44-7.04-4.57-9.05-14.02-4.48-21.05,1.55-2.39,3.44-4.15,7.22-6.76,3.38-2.33,6.45-6.31,6.48-6.35l9.98-14.47,4.86,3.35-10.06,14.59c-.23.31-3.75,4.87-7.9,7.74-3.49,2.41-4.67,3.65-5.62,5.11-2.75,4.23-1.49,10.13,2.74,12.88,2.07,1.34,4.55,1.8,7,1.28,2.45-.52,4.55-1.94,5.89-4.01.95-1.45,1.6-3.03,2.39-7.21.92-4.97,3.66-10.03,3.78-10.24l10.21-16.93,5.06,3.05-10.14,16.81h0s-2.34,4.38-3.09,8.39c-.85,4.52-1.7,6.97-3.25,9.34-2.2,3.39-5.62,5.73-9.62,6.57-1.07.22-2.14.34-3.2.34Z"/><path class="cls-2" d="M220.65,316.63c-.88,0-1.76-.25-2.55-.76l-20.15-13.09c-2.17-1.41-2.79-4.32-1.38-6.49,1.41-2.17,4.33-2.78,6.49-1.38l20.15,13.09c2.17,1.41,2.79,4.32,1.38,6.49-.9,1.38-2.4,2.14-3.94,2.14ZM111.25,245.58c-.88,0-1.76-.25-2.55-.76l-20.15-13.1c-2.17-1.41-2.79-4.32-1.38-6.49,1.41-2.18,4.33-2.78,6.49-1.38l20.15,13.1c2.17,1.41,2.79,4.32,1.38,6.49-.9,1.38-2.4,2.14-3.94,2.14Z"/><path class="cls-2" d="M212.37,234.8c-.88,0-1.76-.25-2.55-.76l-42.89-27.85c-2.17-1.41-2.79-4.32-1.38-6.49l13.07-20.14c9.09-13.99,27.86-17.99,41.86-8.9h0c6.77,4.4,11.42,11.18,13.11,19.09s.19,16-4.21,22.77l-13.08,20.13c-.9,1.38-2.4,2.14-3.94,2.14ZM175.97,200.88l35.02,22.74,10.52-16.2c3.03-4.67,4.06-10.25,2.9-15.71-1.16-5.46-4.37-10.14-9.04-13.17h0c-9.65-6.27-22.61-3.51-28.88,6.14l-10.52,16.21Z"/></g></svg>