<?xml version="1.0" encoding="UTF-8"?><svg xmlns="http://www.w3.org/2000/svg" width="391" height="391" viewBox="0 0 391 391"><defs><style>.cls-1{fill:#f4f1f6;}.cls-2{fill:#c6007e;}</style></defs><g id="HG"><circle class="cls-1" cx="195.5" cy="195.5" r="195.5"/></g><g id="Icon"><path class="cls-2" d="M270.5,105.5h-98c-8.28,0-15,6.72-15,15v10h-35c-8.28,0-15,6.72-15,15v170c0,8.28,6.72,15,15,15h98c8.28,0,15-6.72,15-15v-10h35c8.28,0,15-6.72,15-15v-170c0-8.28-6.72-15-15-15ZM224.5,315.5c0,2.21-1.79,4-4,4h-98c-2.21,0-4-1.79-4-4v-170c0-2.21,1.79-4,4-4h98c2.21,0,4,1.79,4,4v170ZM274.5,290.5c0,2.21-1.79,4-4,4h-35v-149c0-8.28-6.72-15-15-15h-52v-10c0-2.21,1.79-4,4-4h98c2.21,0,4,1.79,4,4v170Z"/><path class="cls-2" d="M148.5,172.5h48c3.04,0,5.5-2.46,5.5-5.5s-2.46-5.5-5.5-5.5h-48c-3.04,0-5.5,2.46-5.5,5.5s2.46,5.5,5.5,5.5Z"/><path class="cls-2" d="M148.5,202.5h68c3.04,0,5.5-2.46,5.5-5.5s-2.46-5.5-5.5-5.5h-68c-3.04,0-5.5,2.46-5.5,5.5s2.46,5.5,5.5,5.5Z"/><path class="cls-2" d="M148.5,232.5h68c3.04,0,5.5-2.46,5.5-5.5s-2.46-5.5-5.5-5.5h-68c-3.04,0-5.5,2.46-5.5,5.5s2.46,5.5,5.5,5.5Z"/><path class="cls-2" d="M148.5,262.5h68c3.04,0,5.5-2.46,5.5-5.5s-2.46-5.5-5.5-5.5h-68c-3.04,0-5.5,2.46-5.5,5.5s2.46,5.5,5.5,5.5Z"/><path class="cls-2" d="M148.5,292.5h48c3.04,0,5.5-2.46,5.5-5.5s-2.46-5.5-5.5-5.5h-48c-3.04,0-5.5,2.46-5.5,5.5s2.46,5.5,5.5,5.5Z"/></g></svg>