<?xml version="1.0" encoding="UTF-8"?><svg xmlns="http://www.w3.org/2000/svg" width="391" height="391" viewBox="0 0 391 391"><defs><style>.cls-1{fill:#f4f1f6;}.cls-2{fill:#c6007e;}</style></defs><g id="HG"><circle class="cls-1" cx="195.5" cy="195.5" r="195.5"/></g><g id="Ebene_6"><path class="cls-2" d="M317.97,298.15H73.03c-2.75,0-4.99-2.23-4.99-4.99v-130.14c0-2.75,2.23-4.99,4.99-4.99s4.99,2.23,4.99,4.99v125.15h234.97v-53.7c0-2.75,2.23-4.99,4.99-4.99s4.99,2.23,4.99,4.99v58.69c0,2.75-2.23,4.99-4.99,4.99Z"/><path class="cls-2" d="M223.45,241.13h-55.89c-8.54,0-15.48-8.05-15.48-17.93s6.94-17.94,15.48-17.94c2.75,0,4.99,2.23,4.99,4.99s-2.23,4.99-4.99,4.99c-2.99,0-5.51,3.65-5.51,7.97s2.52,7.96,5.51,7.96h55.89c2.98,0,5.5-3.64,5.5-7.96s-2.52-7.97-5.5-7.97c-2.75,0-4.99-2.23-4.99-4.99s2.23-4.99,4.99-4.99c8.53,0,15.47,8.05,15.47,17.94s-6.94,17.93-15.47,17.93Z"/><path class="cls-2" d="M231.01,119.08c-2.75,0-4.99-2.23-4.99-4.99v-10.6c0-4.25-12.18-10.68-30.53-10.68s-30.52,6.43-30.52,10.68v9.17c0,2.75-2.23,4.99-4.99,4.99s-4.99-2.23-4.99-4.99v-9.17c0-11.77,17.41-20.65,40.49-20.65s40.5,8.88,40.5,20.65v10.6c0,2.75-2.23,4.99-4.99,4.99Z"/><path class="cls-2" d="M262.24,215.4h-.02l-66.48-.21h-.97c-34.45,0-64.2-.04-86.58-3.81-9.9-1.67-40.03-6.76-40.03-31.14v-64.32c0-2.75,2.23-4.99,4.99-4.99h244.69c2.75,0,4.99,2.23,4.99,4.99v64.32c0,2.75-2.23,4.99-4.99,4.99s-4.99-2.23-4.99-4.99v-59.34H78.14v59.34c0,6.85,3.29,16.5,31.72,21.31,21.76,3.67,52.98,3.68,85.89,3.67h.96l65.55.21c2.75,0,4.98,2.25,4.97,5,0,2.75-2.24,4.97-4.99,4.97Z"/></g></svg>