<?xml version="1.0" encoding="UTF-8"?><svg xmlns="http://www.w3.org/2000/svg" width="391" height="391" xmlns:xlink="http://www.w3.org/1999/xlink" viewBox="0 0 391 391"><defs><style>.cls-1{fill:none;}.cls-2{fill:#f4f1f6;}.cls-3{fill:#c6007e;}.cls-4{clip-path:url(#clippath);}</style><clipPath id="clippath"><rect class="cls-1" x="56.41" y="67.92" width="278.14" height="236.51"/></clipPath></defs><g id="HG"><circle class="cls-2" cx="195.5" cy="195.5" r="195.5"/></g><g id="Ebene_2"><g class="cls-4"><path class="cls-3" d="M301.21,300.26H89.75c-3.1,0-5.61-2.51-5.61-5.61v-142.86h-17.96c-2.14,0-4.09-1.21-5.03-3.13-.94-1.91-.72-4.2.58-5.9l52.6-68.49c1.06-1.38,2.71-2.19,4.45-2.19h153.4c1.74,0,3.39.81,4.45,2.19l52.6,68.49c1.3,1.69,1.53,3.97.59,5.89-.94,1.91-2.89,3.13-5.02,3.13l-18.06.05.08,142.81c0,1.49-.59,2.92-1.64,3.97s-2.48,1.64-3.97,1.64ZM95.36,289.05h200.24l-.08-142.8c0-3.09,2.5-5.61,5.59-5.61l12.31-.03-44-57.3H121.54l-43.98,57.27h144.17c3.1,0,5.61,2.51,5.61,5.61s-2.51,5.61-5.61,5.61h-126.37v137.25Z"/><path class="cls-3" d="M282.7,276.55h-82.03v-59.87c0-12.9,17.63-22.62,41.02-22.62s41.01,9.73,41.01,22.62v59.87ZM211.89,265.33h59.6v-48.66c0-4.54-11.88-11.41-29.8-11.41s-29.8,6.87-29.8,11.41v48.66Z"/><path class="cls-3" d="M184.67,299.53c-3.1,0-5.61-2.51-5.61-5.61v-77.25c0-4.54-11.89-11.41-29.8-11.41s-29.8,6.87-29.8,11.41v77.25c0,3.1-2.51,5.61-5.61,5.61s-5.61-2.51-5.61-5.61v-77.25c0-12.9,17.63-22.63,41.02-22.63s41.01,9.73,41.01,22.63v77.25c0,3.1-2.51,5.61-5.61,5.61Z"/></g></g></svg>