<?xml version="1.0" encoding="UTF-8"?><svg xmlns="http://www.w3.org/2000/svg" width="391" height="391" viewBox="0 0 391 391"><defs><style>.cls-1{fill:#f4f1f6;}.cls-2{fill:#c6007e;}</style></defs><g id="HG"><circle class="cls-1" cx="195.5" cy="195.5" r="195.5"/></g><g id="Icon"><path class="cls-2" d="M243.5,284h-96c-8.28,0-15-6.72-15-15v-12c0-8.28,6.72-15,15-15h96c8.28,0,15,6.72,15,15v12c0,8.28-6.72,15-15,15ZM147.5,253c-2.21,0-4,1.79-4,4v12c0,2.21,1.79,4,4,4h96c2.21,0,4-1.79,4-4v-12c0-2.21-1.79-4-4-4h-96Z"/><path class="cls-2" d="M236.5,253h-82l22.73-136.4c.89-5.35,5.53-9.27,10.96-9.27h14.62c5.43,0,10.07,3.92,10.96,9.27L236.5,253ZM165.83,242h59.34l-21.4-128.4c-.18-1.07-1.1-1.85-2.19-1.85h-12.16c-1.09,0-2.01.78-2.19,1.85L165.83,242Z"/><path class="cls-2" d="M228,193.5h-65c-3.04,0-5.5-2.46-5.5-5.5s2.46-5.5,5.5-5.5h65c3.04,0,5.5,2.46,5.5,5.5s-2.46,5.5-5.5,5.5Z"/><path class="cls-2" d="M221,157.5h-51c-3.04,0-5.5-2.46-5.5-5.5s2.46-5.5,5.5-5.5h51c3.04,0,5.5,2.46,5.5,5.5s-2.46,5.5-5.5,5.5Z"/><path class="cls-2" d="M233.5,230.5h-76c-3.04,0-5.5-2.46-5.5-5.5s2.46-5.5,5.5-5.5h76c3.04,0,5.5,2.46,5.5,5.5s-2.46,5.5-5.5,5.5Z"/></g></svg>