<?xml version="1.0" encoding="UTF-8"?><svg xmlns="http://www.w3.org/2000/svg" width="391" height="391" viewBox="0 0 391 391"><defs><style>.cls-1{fill:#f4f1f6;}.cls-2{fill:#c6007e;}</style></defs><g id="HG"><circle class="cls-1" cx="195.5" cy="195.5" r="195.5"/></g><g id="Icon"><path class="cls-2" d="M195.5,72c-2.07,0-4.01,1.15-4.98,3l-60,120c-.72,1.44-.72,3.14,0,4.58.72,1.44,2.11,2.42,3.72,2.42h16.26v117c0,3.04,2.46,5.5,5.5,5.5h79c3.04,0,5.5-2.46,5.5-5.5v-117h16.26c1.61,0,3-.98,3.72-2.42.72-1.44.72-3.14,0-4.58l-60-120c-.97-1.85-2.91-3-4.98-3ZM195.5,86.71l51.24,102.29h-15.24c-3.04,0-5.5,2.46-5.5,5.5v117h-61v-117c0-3.04-2.46-5.5-5.5-5.5h-15.24l51.24-102.29Z"/><path class="cls-2" d="M195.5,152c-3.04,0-5.5,2.46-5.5,5.5v40c0,3.04,2.46,5.5,5.5,5.5s5.5-2.46,5.5-5.5v-40c0-3.04-2.46-5.5-5.5-5.5Z"/><circle class="cls-2" cx="195.5" cy="218" r="7"/><path class="cls-2" d="M175.5,262.5h40c3.04,0,5.5-2.46,5.5-5.5s-2.46-5.5-5.5-5.5h-40c-3.04,0-5.5,2.46-5.5,5.5s2.46,5.5,5.5,5.5Z"/><path class="cls-2" d="M175.5,287.5h40c3.04,0,5.5-2.46,5.5-5.5s-2.46-5.5-5.5-5.5h-40c-3.04,0-5.5,2.46-5.5,5.5s2.46,5.5,5.5,5.5Z"/></g></svg>