<?xml version="1.0" encoding="UTF-8"?><svg xmlns="http://www.w3.org/2000/svg" width="391" height="391" viewBox="0 0 391 391"><defs><style>.cls-1{fill:#f4f1f6;}.cls-2{fill:#c6007e;}</style></defs><g id="HG"><circle class="cls-1" cx="195.5" cy="195.5" r="195.5"/></g><g id="Ebene_8"><path class="cls-2" d="M196.14,349.8c-2.88,0-5.22-2.34-5.22-5.22v-127.57l-79.71-95.66c-1.3-1.56-1.58-3.72-.72-5.56.86-1.84,2.7-3.01,4.73-3.01h161.84c2.01,0,3.84,1.15,4.71,2.96s.63,3.96-.63,5.52l-38.84,48.55c-1.8,2.25-5.08,2.62-7.34.82-2.25-1.8-2.62-5.09-.81-7.34l32.05-40.07H126.37l73.78,88.55c.78.94,1.21,2.12,1.21,3.34v129.46c0,2.88-2.34,5.22-5.22,5.22Z"/><path class="cls-2" d="M224,349.82h-55.71c-2.88,0-5.22-2.34-5.22-5.22s2.34-5.22,5.22-5.22h55.71c2.88,0,5.22,2.34,5.22,5.22s-2.34,5.22-5.22,5.22Z"/><path class="cls-2" d="M174.95,171.2c-14.13,0-25.63-11.5-25.63-25.64,0-8.96,4.77-17.38,12.46-21.99,3.95-2.38,8.51-3.64,13.17-3.64,14.14,0,25.63,11.5,25.63,25.63s-11.5,25.64-25.63,25.64ZM174.95,128.14c-3.17,0-6.26.85-8.94,2.47-5.31,3.19-8.49,8.78-8.49,14.96,0,9.61,7.82,17.43,17.43,17.43s17.43-7.82,17.43-17.43-7.82-17.43-17.43-17.43Z"/><path class="cls-2" d="M164.35,127.51c-1.52,0-2.97-.84-3.69-2.29l-32.8-66.65c-1-2.03-.16-4.49,1.87-5.49,2.03-1.01,4.49-.16,5.49,1.87l32.8,66.65c1,2.03.16,4.49-1.87,5.49-.58.29-1.2.42-1.81.42Z"/></g></svg>