<?xml version="1.0" encoding="UTF-8"?><svg xmlns="http://www.w3.org/2000/svg" width="391" height="391" viewBox="0 0 391 391"><defs><style>.cls-1{fill:#f4f1f6;}.cls-2{fill:#c6007e;}</style></defs><g id="HG"><circle class="cls-1" cx="195.5" cy="195.5" r="195.5"/></g><g id="Ebene_4"><path class="cls-2" d="M195.5,208.9c-30.1,0-52.8-11.32-52.8-26.33v-111.37c0-15.01,22.7-26.33,52.8-26.33s52.81,11.32,52.81,26.33v55.68c0,1.44-.58,2.82-1.6,3.84-1.02,1.01-2.39,1.58-3.83,1.58h-.02l-34.58-.11c-3,0-5.42-2.44-5.41-5.44.01-2.99,2.44-5.41,5.43-5.41h.02l29.14.09v-50.24c0-6.31-16.34-15.48-41.96-15.48s-41.95,9.17-41.95,15.48v111.37c0,6.31,16.34,15.48,41.95,15.48s41.96-9.17,41.96-15.48v-27.33c0-3,2.43-5.42,5.43-5.42s5.43,2.43,5.43,5.42v27.33c0,15.01-22.7,26.33-52.81,26.33Z"/><path class="cls-2" d="M195.5,235.34c-44.02,0-77.22-15.95-77.22-37.1v-78.95h-10.35c-3,0-5.43-2.43-5.43-5.42s2.43-5.42,5.43-5.42h15.77c3,0,5.43,2.43,5.43,5.42v84.37c0,12.42,27.26,26.25,66.37,26.25s66.37-13.83,66.37-26.25v-84.37c0-3,2.43-5.42,5.43-5.42h15.77c3,0,5.43,2.43,5.43,5.42s-2.43,5.42-5.43,5.42h-10.35v78.95c0,21.15-33.2,37.1-77.22,37.1Z"/><path class="cls-2" d="M195.5,262.32c-30.9,0-55.67-10.82-56.71-11.28-2.74-1.21-3.97-4.42-2.76-7.15s4.4-3.98,7.15-2.77c.23.1,23.81,10.35,52.32,10.35s52.09-10.25,52.32-10.35c2.74-1.2,5.95.02,7.16,2.76s-.02,5.94-2.76,7.16c-1.04.46-25.81,11.28-56.72,11.28Z"/><path class="cls-2" d="M195.5,341.1c-3,0-5.43-2.43-5.43-5.43v-77.5c0-3,2.43-5.43,5.43-5.43s5.43,2.43,5.43,5.43v77.5c0,3-2.43,5.43-5.43,5.43Z"/><path class="cls-2" d="M226.11,346.12h-61.23c-3,0-5.43-2.43-5.43-5.43s2.43-5.43,5.43-5.43h61.23c3,0,5.43,2.43,5.43,5.43s-2.43,5.43-5.43,5.43Z"/></g></svg>