<?xml version="1.0" encoding="UTF-8"?><svg xmlns="http://www.w3.org/2000/svg" width="391" height="391" xmlns:xlink="http://www.w3.org/1999/xlink" viewBox="0 0 391 391"><defs><style>.cls-1{fill:none;}.cls-2{fill:#f4f1f6;}.cls-3{clip-path:url(#clippath-1);}.cls-4{fill:#c6007e;}.cls-5{clip-path:url(#clippath);}</style><clipPath id="clippath"><rect class="cls-1" x="27.98" y="59.22" width="289.86" height="273.59"/></clipPath><clipPath id="clippath-1"><rect class="cls-1" x="27.98" y="59.22" width="289.86" height="273.59"/></clipPath></defs><g id="HG"><circle class="cls-2" cx="195.5" cy="195.5" r="195.5"/></g><g id="Ebene_7"><g class="cls-5"><path class="cls-4" d="M160.01,332.4c-2.06,0-4-1.27-4.76-3.32-.97-2.63.37-5.55,3-6.53l87.54-32.43v-60.12c0-2.81,2.27-5.08,5.08-5.08s5.08,2.27,5.08,5.08v63.65c0,2.13-1.32,4.02-3.32,4.76l-90.85,33.65c-.58.22-1.18.32-1.76.32Z"/><path class="cls-4" d="M127.48,252.85c-.42,0-.85-.05-1.27-.17l-94.22-25.23c-1.57-.42-2.82-1.59-3.36-3.12-.53-1.53-.27-3.23.69-4.53l30.85-41.5c1.62-2.18,4.68-2.62,6.86-1.01,2.17,1.61,2.62,4.68,1.01,6.85l-26.55,35.72,84.02,22.5,28.87-39.36c.9-1.23,2.33-1.97,3.85-2,1.54.01,2.98.65,3.93,1.84l31.03,38.93,81.19-23.9-18.57-22.81c-1.71-2.1-1.39-5.18.71-6.89,2.1-1.71,5.18-1.39,6.89.71l23.22,28.52c1.03,1.27,1.36,2.98.88,4.54s-1.72,2.78-3.29,3.25l-91.42,26.91c-1.9.56-3.97-.09-5.21-1.64l-29.09-36.5-27.06,36.9c-.94,1.28-2.42,2-3.95,2Z"/></g><g class="cls-3"><path class="cls-4" d="M159.52,332.42c-.57,0-1.15-.1-1.7-.3l-90.67-33.65c-1.92-.71-3.19-2.54-3.19-4.59v-59.86c0-2.7,2.19-4.9,4.9-4.9s4.9,2.19,4.9,4.9v56.46l80.88,30.01v-110.8l-91.56-23.72c-2.62-.68-4.19-3.35-3.51-5.97.68-2.62,3.34-4.2,5.97-3.51l95.23,24.67c2.16.56,3.67,2.51,3.67,4.74v121.63c0,1.6-.78,3.1-2.1,4.02-.83.58-1.81.88-2.8.88Z"/></g><path class="cls-4" d="M158.46,210.8c-2.13,0-4.09-1.4-4.7-3.55-.74-2.6.76-5.31,3.36-6.05l52.02-14.89c2.59-.75,5.31.76,6.05,3.36.74,2.6-.76,5.31-3.36,6.06l-52.02,14.89c-.45.13-.9.19-1.35.19Z"/><path class="cls-4" d="M63.96,186.12c-2.16,0-4.13-1.44-4.73-3.62-.71-2.61.84-5.3,3.45-6l70.6-19.08c2.61-.7,5.3.84,6.01,3.45.71,2.61-.84,5.3-3.45,6l-70.6,19.08c-.43.12-.86.17-1.28.17Z"/><path class="cls-4" d="M157.91,185.11c-2.51,0-4.65-1.92-4.87-4.47l-5.5-62.51c-.19-2.14,1.04-4.16,3.03-4.97,1.98-.81,4.27-.23,5.64,1.44l26.04,31.9,1.7-48.05c.1-2.7,2.38-4.78,5.07-4.72,2.7.1,4.82,2.36,4.72,5.07l-2.16,61.05c-.07,2.04-1.4,3.82-3.33,4.47-1.93.65-4.06.04-5.36-1.54l-24.2-29.65,4.1,46.65c.24,2.69-1.75,5.07-4.45,5.31-.15.01-.29.02-.44.02Z"/><path class="cls-4" d="M202.97,170.51c-1.09,0-2.16-.36-3.03-1.05-1.16-.92-1.85-2.31-1.86-3.79l-.86-71.11c-.03-2.27,1.51-4.26,3.71-4.81l24.53-6.11c2.61-.66,5.28.94,5.93,3.57.66,2.63-.94,5.28-3.57,5.94l-20.77,5.18.74,61.18,24.1-5.46c2.64-.61,5.26,1.06,5.86,3.69.6,2.64-1.06,5.26-3.69,5.86l-30.01,6.8c-.36.08-.72.12-1.08.12Z"/><path class="cls-4" d="M203.43,135.08c-2.2,0-4.19-1.49-4.75-3.71-.66-2.62.94-5.28,3.56-5.94l24.53-6.12c2.64-.66,5.29.94,5.94,3.57.66,2.62-.94,5.28-3.56,5.94l-24.53,6.12c-.4.1-.8.15-1.19.15Z"/><path class="cls-4" d="M247.4,163.08c-.3,0-.61-.03-.92-.09-2.23-.42-3.88-2.32-3.98-4.59l-3.36-74.13c-.12-2.7,1.97-4.99,4.67-5.11,2.67-.14,4.99,1.97,5.11,4.67l2.42,53.53,10.47-23.38c.79-1.76,2.54-2.9,4.47-2.9h.05c1.95.02,3.7,1.2,4.46,2.99l7.94,18.77,10.5-58.06c.48-2.66,3.04-4.43,5.69-3.95,2.66.48,4.43,3.03,3.95,5.69l-13.43,74.24c-.39,2.13-2.13,3.76-4.28,4-2.11.23-4.2-.96-5.05-2.96l-9.96-23.55-14.3,31.93c-.8,1.79-2.57,2.9-4.47,2.9Z"/><path class="cls-4" d="M312.78,151.55c3.57-.91,5.75-4.53,4.86-8.09-.89-3.57-4.51-5.76-8.07-4.84-3.58.88-5.75,4.5-4.85,8.06.89,3.56,4.51,5.76,8.07,4.87"/><path class="cls-4" d="M311.39,129.71c-.05,0-.11,0-.16,0-2.7-.09-4.82-2.35-4.74-5.05l1.97-61.11c.09-2.7,2.22-4.87,5.06-4.74,2.7.09,4.82,2.35,4.74,5.05l-1.97,61.11c-.09,2.65-2.26,4.74-4.89,4.74Z"/></g></svg>